<svg width="144" height="28" viewBox="0 0 144 28" fill="none" xmlns="http://www.w3.org/2000/svg">
<path d="M46.796 25V6.44H40.268V2.6H57.548V6.44H51.02V25H46.796ZM69.0645 25.448C67.2298 25.448 65.6512 25.1173 64.3285 24.456C63.0272 23.7733 62.0245 22.8133 61.3205 21.576C60.6378 20.3173 60.2965 18.8347 60.2965 17.128V2.6H64.5205V17.256C64.5205 18.6213 64.9045 19.6987 65.6725 20.488C66.4618 21.2773 67.5925 21.672 69.0645 21.672C70.5365 21.672 71.6565 21.2773 72.4245 20.488C73.2138 19.6987 73.6085 18.6213 73.6085 17.256V2.6H77.8325V17.128C77.8325 18.8347 77.4805 20.3173 76.7765 21.576C76.0938 22.8133 75.0912 23.7733 73.7685 24.456C72.4672 25.1173 70.8992 25.448 69.0645 25.448ZM84.6765 25V12.456H80.6445V9.128H84.6765V6.184C84.6765 5.096 84.9965 4.232 85.6365 3.592C86.2978 2.93067 87.1512 2.6 88.1965 2.6H92.3565V5.928H89.6045C89.0072 5.928 88.7085 6.248 88.7085 6.888V9.128H92.8685V12.456H88.7085V25H84.6765ZM100.668 25.448C99.5373 25.448 98.524 25.256 97.628 24.872C96.732 24.4667 96.0173 23.8907 95.484 23.144C94.972 22.376 94.716 21.448 94.716 20.36C94.716 19.272 94.972 18.3653 95.484 17.64C96.0173 16.8933 96.7427 16.3387 97.66 15.976C98.5987 15.592 99.6653 15.4 100.86 15.4H105.212V14.504C105.212 13.7573 104.977 13.1493 104.508 12.68C104.039 12.1893 103.292 11.944 102.268 11.944C101.265 11.944 100.519 12.1787 100.028 12.648C99.5373 13.096 99.2173 13.6827 99.068 14.408L95.356 13.16C95.612 12.3493 96.0173 11.6133 96.572 10.952C97.148 10.2693 97.9053 9.72533 98.844 9.32C99.804 8.89333 100.967 8.68 102.332 8.68C104.423 8.68 106.076 9.20267 107.292 10.248C108.508 11.2933 109.116 12.808 109.116 14.792V20.712C109.116 21.352 109.415 21.672 110.012 21.672H111.292V25H108.604C107.815 25 107.164 24.808 106.652 24.424C106.14 24.04 105.884 23.528 105.884 22.888V22.856H105.276C105.191 23.112 104.999 23.4533 104.7 23.88C104.401 24.2853 103.932 24.648 103.292 24.968C102.652 25.288 101.777 25.448 100.668 25.448ZM101.372 22.184C102.503 22.184 103.42 21.8747 104.124 21.256C104.849 20.616 105.212 19.7733 105.212 18.728V18.408H101.148C100.401 18.408 99.8147 18.568 99.388 18.888C98.9613 19.208 98.748 19.656 98.748 20.232C98.748 20.808 98.972 21.2773 99.42 21.64C99.868 22.0027 100.519 22.184 101.372 22.184ZM120.707 25.448C118.638 25.448 116.942 25 115.619 24.104C114.296 23.208 113.496 21.928 113.219 20.264L116.931 19.304C117.08 20.0507 117.326 20.6373 117.667 21.064C118.03 21.4907 118.467 21.8 118.979 21.992C119.512 22.1627 120.088 22.248 120.707 22.248C121.646 22.248 122.339 22.088 122.787 21.768C123.235 21.4267 123.459 21.0107 123.459 20.52C123.459 20.0293 123.246 19.656 122.819 19.4C122.392 19.1227 121.71 18.8987 120.771 18.728L119.875 18.568C118.766 18.3547 117.752 18.0667 116.835 17.704C115.918 17.32 115.182 16.7973 114.627 16.136C114.072 15.4747 113.795 14.6213 113.795 13.576C113.795 11.9973 114.371 10.792 115.523 9.96C116.675 9.10667 118.19 8.68 120.067 8.68C121.838 8.68 123.31 9.07467 124.483 9.864C125.656 10.6533 126.424 11.688 126.787 12.968L123.043 14.12C122.872 13.3093 122.52 12.7333 121.987 12.392C121.475 12.0507 120.835 11.88 120.067 11.88C119.299 11.88 118.712 12.0187 118.307 12.296C117.902 12.552 117.699 12.9147 117.699 13.384C117.699 13.896 117.912 14.28 118.339 14.536C118.766 14.7707 119.342 14.952 120.067 15.08L120.963 15.24C122.158 15.4533 123.235 15.7413 124.195 16.104C125.176 16.4453 125.944 16.9467 126.499 17.608C127.075 18.248 127.363 19.1227 127.363 20.232C127.363 21.896 126.755 23.1867 125.539 24.104C124.344 25 122.734 25.448 120.707 25.448ZM136.664 25C135.618 25 134.765 24.68 134.104 24.04C133.464 23.3787 133.144 22.504 133.144 21.416V12.456H129.176V9.128H133.144V4.2H137.176V9.128H141.528V12.456H137.176V20.712C137.176 21.352 137.474 21.672 138.072 21.672H141.144V25H136.664Z" fill="#8FA9D4"/>
<path d="M26.1208 2.09191C26.1108 2.04354 26.0872 1.99902 26.0528 1.96357C26.0184 1.92812 25.9746 1.90321 25.9266 1.89175C22.7236 1.10862 15.3227 3.89933 11.313 7.90738C10.5979 8.61676 9.94588 9.38712 9.3645 10.2097C8.12802 10.1003 6.89153 10.1917 5.8377 10.651C2.86434 11.9597 1.99864 15.3744 1.75747 16.8433C1.74379 16.9237 1.74895 17.0062 1.77254 17.0843C1.79614 17.1623 1.83752 17.2339 1.89344 17.2932C1.94936 17.3526 2.01829 17.3982 2.09481 17.4264C2.17133 17.4546 2.25335 17.4647 2.33442 17.4558L7.10919 16.9292C7.11259 17.2892 7.13431 17.6487 7.17427 18.0065C7.19829 18.255 7.30858 18.4872 7.48598 18.6628L9.33497 20.5074C9.51076 20.6845 9.74285 20.7948 9.99122 20.8191C10.347 20.8588 10.7046 20.8806 11.0625 20.8842L10.5386 25.6529C10.5299 25.734 10.5401 25.8159 10.5683 25.8924C10.5966 25.9689 10.6421 26.0377 10.7015 26.0936C10.7608 26.1495 10.8323 26.1909 10.9103 26.2146C10.9883 26.2382 11.0708 26.2434 11.1511 26.2299C12.6173 25.9947 16.038 25.129 17.339 22.1557C17.7984 21.1018 17.8925 19.8714 17.7864 18.6409C18.611 18.0595 19.3833 17.4073 20.0947 16.6918C24.117 12.6898 26.8918 5.45409 26.1208 2.09191ZM16.0818 11.9176C15.7145 11.5506 15.4643 11.0828 15.3629 10.5736C15.2615 10.0643 15.3133 9.53645 15.512 9.0567C15.7106 8.57694 16.047 8.16687 16.4788 7.87836C16.9105 7.58984 17.4181 7.43585 17.9373 7.43585C18.4566 7.43585 18.9641 7.58984 19.3959 7.87836C19.8276 8.16687 20.164 8.57694 20.3627 9.0567C20.5613 9.53645 20.6132 10.0643 20.5117 10.5736C20.4103 11.0828 20.1601 11.5506 19.7929 11.9176C19.5493 12.1615 19.2601 12.355 18.9417 12.487C18.6233 12.619 18.282 12.687 17.9373 12.687C17.5926 12.687 17.2513 12.619 16.9329 12.487C16.6146 12.355 16.3253 12.1615 16.0818 11.9176Z" fill="#8FA9D4"/>
<path d="M9.20937 21.8438C8.90969 22.1441 8.42898 22.2611 7.85039 22.3612C6.55047 22.5827 5.40258 21.4594 5.63609 20.1452C5.72523 19.647 5.98883 18.9487 6.15289 18.7846C6.18875 18.7494 6.21262 18.7039 6.22111 18.6544C6.22959 18.6049 6.22227 18.5539 6.20017 18.5088C6.17807 18.4637 6.14233 18.4267 6.09801 18.4031C6.05369 18.3795 6.00305 18.3704 5.95328 18.3772C5.22635 18.4661 4.55007 18.7957 4.03211 19.3134C2.74641 20.6002 2.625 25.375 2.625 25.375C2.625 25.375 7.4025 25.2536 8.6882 23.9668C9.20751 23.4492 9.53749 22.7719 9.625 22.044C9.64523 21.8154 9.36687 21.6792 9.20937 21.8438Z" fill="#005EFF"/>
</svg>
