<?xml version="1.0" standalone="no"?>
<!DOCTYPE svg PUBLIC "-//W3C//DTD SVG 20010904//EN"
 "http://www.w3.org/TR/2001/REC-SVG-20010904/DTD/svg10.dtd">
<svg version="1.0" xmlns="http://www.w3.org/2000/svg"
 width="128.000000pt" height="128.000000pt" viewBox="0 0 128.000000 128.000000"
 preserveAspectRatio="xMidYMid meet">

<g transform="translate(0.000000,128.000000) scale(0.100000,-0.100000)"
fill="#000000" stroke="none">
<path d="M1065 1276 c-5 -2 -35 -12 -65 -21 -133 -41 -279 -130 -477 -291 -32
-26 -34 -26 -97 -14 -60 11 -68 11 -98 -8 -41 -26 -328 -314 -328 -330 0 -13
9 -16 135 -37 114 -19 145 -19 174 1 23 16 25 15 152 -114 l129 -130 -17 -30
c-16 -27 -16 -36 1 -155 10 -69 22 -130 26 -137 12 -20 37 0 203 168 170 172
168 169 146 257 l-11 45 75 92 c41 51 90 118 110 148 89 142 157 315 157 402
0 52 -27 113 -57 134 -24 15 -134 29 -158 20z m-27 -206 c34 -21 62 -71 62
-111 0 -11 -8 -37 -17 -56 -43 -91 -171 -98 -230 -13 -23 32 -22 108 2 143 37
58 121 74 183 37z"/>
<path d="M255 416 c-57 -80 -113 -201 -122 -261 l-6 -45 54 24 c30 13 89 38
131 56 87 35 168 92 168 118 0 17 -151 172 -169 172 -5 0 -31 -29 -56 -64z"/>
</g>
</svg>
