<?xml version="1.0" encoding="UTF-8" standalone="no"?>
<svg
   id="visual"
   viewBox="0 0 960 540"
   width="960"
   height="540"
   version="1.1"
   sodipodi:docname="stacked-waves-haikei.svg"
   inkscape:version="1.1.1 (3bf5ae0d25, 2021-09-20, custom)"
   xmlns:inkscape="http://www.inkscape.org/namespaces/inkscape"
   xmlns:sodipodi="http://sodipodi.sourceforge.net/DTD/sodipodi-0.dtd"
   xmlns="http://www.w3.org/2000/svg"
   xmlns:svg="http://www.w3.org/2000/svg">
  <defs
     id="defs15" />
  <sodipodi:namedview
     id="namedview13"
     pagecolor="#ffffff"
     bordercolor="#666666"
     borderopacity="1.0"
     inkscape:pageshadow="2"
     inkscape:pageopacity="0.0"
     inkscape:pagecheckerboard="0"
     showgrid="false"
     inkscape:zoom="1.278125"
     inkscape:cx="480"
     inkscape:cy="269.92665"
     inkscape:window-width="1920"
     inkscape:window-height="1050"
     inkscape:window-x="0"
     inkscape:window-y="30"
     inkscape:window-maximized="1"
     inkscape:current-layer="visual" />
  <path
     d="m 960.04609,491.89278 -14.49925,-0.81348 c -14.49915,-0.91349 -43.49765,-2.54047 -72.69346,-7.06763 -29.0958,-4.52706 -58.4889,-11.95441 -87.58972,-11.08148 -29.20074,0.77284 -58.2091,9.74586 -87.21001,10.71888 -29.00092,0.97303 -57.9944,-6.05395 -86.99187,-8.78092 -28.99757,-2.62698 -57.99905,-1.05395 -87.20322,3.41888 -29.10417,4.47293 -58.51105,11.84558 -87.61271,13.61851 -29.20166,1.77284 -58.1983,-1.85414 -87.19484,-5.58111 -28.99655,-3.72697 -57.99319,-7.35395 -86.99066,-10.08092 -28.99748,-2.72698 -57.99598,-4.35395 -87.19271,-7.88111 -29.09673,-3.52707 -58.4917,-8.95442 -87.59168,-8.98149 -29.199988,-0.0272 -58.204998,5.34586 -72.70741,7.93237 L 0.0660447,469.99979 0,540.99976 l 14.499993,0.0135 c 14.499994,0.0135 43.499981,0.0405 72.699969,0.0676 29.099988,0.0271 58.499968,0.0544 87.599958,0.0815 29.19999,0.0272 58.19998,0.0541 87.19996,0.0811 28.99999,0.027 57.99998,0.0539 86.99997,0.0809 28.99998,0.027 57.99997,0.0539 87.19996,0.0811 29.09999,0.0271 58.49997,0.0544 87.59996,0.0815 29.19999,0.0272 58.19997,0.0541 87.19996,0.0811 28.99999,0.027 57.99998,0.0539 86.99996,0.0809 28.99999,0.027 57.99998,0.0539 87.19997,0.0811 29.09998,0.0271 58.49997,0.0544 87.59996,0.0815 29.19999,0.0272 58.19997,0.0541 72.69997,0.0676 l 14.49999,0.0135 z"
     fill="#47bb5d"
     id="path2" />
  <path
     d="m 960.16144,367.89284 -14.50586,6.28651 c -14.50594,6.38651 -43.51765,18.95952 -72.71941,20.83236 -29.10166,1.77293 -58.49327,-7.25441 -87.59075,-9.98148 -29.19757,-2.62716 -58.2009,0.94586 -87.20015,0.11889 -28.99924,-0.82698 -57.99421,-6.25395 -86.9967,-3.58093 -29.0025,2.67302 -58.01235,13.24604 -87.21811,19.41888 -29.10575,6.17293 -58.50723,7.74558 -87.59884,-1.28149 -29.19162,-9.02716 -58.17337,-28.65412 -87.16499,-37.6811 -28.99161,-9.02697 -57.99309,-7.45395 -87.00322,3.41907 -29.01003,10.77302 -58.02862,30.74604 -87.22442,26.21888 -29.0958,-4.52707 -58.46882,-33.5544 -87.56294,-39.88147 -29.194034,-6.42716 -58.209277,9.94586 -72.716805,18.03237 l -14.50762122,8.1865 -0.08743949,93.99996 14.50250471,-2.68651 c 14.502412,-2.58651 43.507423,-7.95953 72.70741,-7.93237 29.099981,0.0271 58.494951,5.45442 87.591681,8.98148 29.19673,3.52716 58.19523,5.15414 87.19271,7.88112 28.99747,2.72697 57.99411,6.35394 86.99066,10.08092 28.99654,3.72697 57.99318,7.35395 87.19484,5.58111 29.10166,-1.77293 58.50854,-9.14558 87.61271,-13.61851 29.20417,-4.47283 58.20565,-6.04586 87.20322,-3.41888 28.99747,2.72697 57.99095,9.75395 86.99187,8.78092 29.00091,-0.97302 58.00927,-9.94604 87.21,-10.71888 29.10083,-0.87293 58.49393,6.55442 87.58973,11.08148 29.19581,4.52716 58.19431,6.15414 72.69346,7.06763 l 14.49925,0.81348 z"
     fill="#00987f"
     id="path4" />
  <path
     d="m 960.21632,308.89286 -14.50251,2.68651 c -14.50241,2.58651 -43.50742,7.95954 -72.70489,5.23238 -29.09748,-2.72707 -58.48761,-13.35442 -87.58508,-16.08148 -29.19748,-2.72716 -58.20249,2.64586 -87.20741,7.91888 -29.00491,5.27302 -58.00993,10.64604 -87.00898,9.61907 -28.99906,-1.02698 -57.99216,-8.45395 -87.19048,-10.28111 -29.09831,-1.82707 -58.50165,1.74558 -87.60163,1.71851 -29.19999,-0.0272 -58.19663,-3.65414 -87.18917,-11.68111 -28.99255,-8.02697 -57.981,-20.45394 -86.98694,-14.08092 -29.00585,6.27302 -58.02909,31.24603 -87.23066,32.91887 C 145.90709,318.43539 116.5272,296.80805 87.437351,285.88099 58.24741,275.05383 29.247422,275.02685 14.747428,275.01337 L 0.24743514,274.99988 0.14976336,379.99983 14.657384,371.81332 c 14.507529,-8.0865 43.522772,-24.45952 72.716806,-18.03236 29.09412,6.32706 58.46714,35.3544 87.56294,39.88147 29.1958,4.52716 58.21439,-15.44586 87.22442,-26.21888 29.01013,-10.87302 58.01161,-12.44604 87.00322,-3.41907 28.99162,9.02697 57.97337,28.65394 87.16499,37.6811 29.09161,9.02707 58.49309,7.45441 87.59884,1.28149 29.20576,-6.17284 58.21561,-16.74586 87.2181,-19.41888 29.0025,-2.67302 57.99747,2.75395 86.99671,3.58093 28.99924,0.82697 58.00258,-2.74605 87.20015,-0.11889 29.09748,2.72707 58.48909,11.75441 87.59075,9.98148 29.20176,-1.87284 58.21347,-14.44585 72.71941,-20.83236 l 14.50586,-6.28651 z"
     fill="#00707a"
     id="path6" />
  <path
     d="m 960.36236,151.89293 -14.50511,5.48651 c -14.50511,5.48651 -43.51533,16.45953 -72.72043,21.93237 -29.1051,5.47292 -58.50509,5.44558 -87.59745,-2.78149 -29.19245,-8.12716 -58.17719,-24.55413 -87.17969,-21.8811 -29.00249,2.67302 -58.02257,24.24603 -87.02758,29.61905 -29.00492,5.27303 -57.99468,-5.75394 -87.18211,-19.2811 -29.08743,-13.52706 -58.47253,-29.55441 -87.57001,-32.28147 -29.19757,-2.62716 -58.20741,7.94586 -87.20573,6.11888 -28.99831,-1.82698 -57.9849,-16.25395 -86.97996,-21.58092 -28.99506,-5.32697 -57.99839,-1.75395 -87.19922,-0.88111 -29.10073,0.77293 -58.49886,-1.25442 -87.59884,-1.28149 -29.199987,-0.0272 -58.201835,1.94586 -72.702759,2.93237 l -14.50092352,0.98652 -0.14697276,157.99993 14.49999328,0.0135 c 14.499994,0.0135 43.499981,0.0405 72.689922,10.86762 29.08985,10.92706 58.46974,32.5544 87.57122,30.98147 29.20156,-1.67284 58.22481,-26.64585 87.23066,-32.91887 29.00594,-6.37302 57.99439,6.05395 86.98693,14.08092 28.99255,8.02697 57.98919,11.65395 87.18918,11.68111 29.09998,0.0271 58.50332,-3.54558 87.60163,-1.71851 29.19832,1.82716 58.19142,9.25413 87.19048,10.28111 28.99905,1.02697 58.00406,-4.34605 87.00898,-9.61907 29.00492,-5.27302 58.00993,-10.64605 87.20741,-7.91888 29.09747,2.72706 58.4876,13.35441 87.58508,16.08147 29.19747,2.72717 58.20248,-2.64586 72.70489,-5.23237 l 14.50251,-2.68651 z"
     fill="#234959"
     id="path8" />
  <path
     d="m 960.50282,0.89299906 -14.49999,-0.013488 c -14.49999,-0.013488 -43.49998,-0.040464 -72.69997,-0.0676261 -29.09999,-0.027069 -58.49997,-0.0544171 -87.59996,-0.0814862 -29.19999,-0.027162 -58.19998,-0.0541381 -87.19996,-0.0811141 -28.99999,-0.026976 -57.99998,-0.053952 -86.99997,-0.080928 -28.99998,-0.026976 -57.99997,-0.053952 -87.19996,-0.081114 -29.09999,-0.027069 -58.49997,-0.0544171 -87.59996,-0.0814862 -29.19999,-0.0271621 -58.19997,-0.0541381 -87.19996,-0.0811141 -28.99999,-0.026976 -57.99998,-0.053952 -86.99996,-0.080928 -28.99999,-0.026976 -57.99998,-0.053952 -87.19997,-0.0811141 C 146.20318,0.13553127 116.80319,0.10818317 87.703204,0.08111407 58.503217,0.05395207 29.503229,0.02697597 15.003235,0.01348797 L 0.50324216,0 0.39068707,120.99995 14.891611,120.01343 c 14.500924,-0.98651 43.502771,-2.95953 72.702759,-2.93237 29.09998,0.0271 58.49811,2.05442 87.59884,1.28149 29.20083,-0.87284 58.20416,-4.44586 87.19922,0.88111 28.99506,5.32697 57.98165,19.75394 86.97996,21.58092 28.99832,1.82697 58.00816,-8.74605 87.20573,-6.11888 29.09748,2.72706 58.48258,18.7544 87.57001,32.28147 29.18743,13.52715 58.17719,24.55413 87.1821,19.2811 29.00502,-5.37302 58.0251,-26.94603 87.02759,-29.61906 29.0025,-2.67302 57.98724,13.75395 87.17969,21.88111 29.09236,8.22706 58.49235,8.25441 87.59745,2.78148 29.2051,-5.47283 58.21532,-16.44585 72.72043,-21.93236 l 14.50511,-5.48651 z"
     fill="#21262d"
     id="path10" />
</svg>
