<?xml version="1.0" encoding="UTF-8" standalone="no"?>
<svg
   id="visual"
   viewBox="0 0 960 540"
   width="960"
   height="540"
   version="1.1"
   sodipodi:docname="stacked-waves-haikei_light.svg"
   inkscape:version="1.1.1 (3bf5ae0d25, 2021-09-20, custom)"
   xmlns:inkscape="http://www.inkscape.org/namespaces/inkscape"
   xmlns:sodipodi="http://sodipodi.sourceforge.net/DTD/sodipodi-0.dtd"
   xmlns="http://www.w3.org/2000/svg"
   xmlns:svg="http://www.w3.org/2000/svg">
  <defs
     id="defs15" />
  <sodipodi:namedview
     id="namedview13"
     pagecolor="#ffffff"
     bordercolor="#666666"
     borderopacity="1.0"
     inkscape:pageshadow="2"
     inkscape:pageopacity="0.0"
     inkscape:pagecheckerboard="0"
     showgrid="false"
     inkscape:zoom="1.262963"
     inkscape:cx="488.13782"
     inkscape:cy="287.41935"
     inkscape:window-width="1920"
     inkscape:window-height="1050"
     inkscape:window-x="0"
     inkscape:window-y="30"
     inkscape:window-maximized="1"
     inkscape:current-layer="visual" />
  <path
     d="m 961.46077,490.99781 -14.50232,-0.75673 c -14.50263,-0.85673 -43.50727,-2.37019 -72.72057,-6.78305 -29.1133,-4.41315 -58.53524,-11.72539 -87.63243,-10.73857 -29.19748,0.88712 -58.1705,9.97361 -87.16739,11.06014 -28.99688,1.08652 -58.01764,-5.82691 -87.02557,-8.44037 -29.00763,-2.51346 -58.00272,-0.82694 -87.18917,3.76017 -29.08644,4.58681 -58.46423,12.0745 -87.55873,13.96132 -29.1945,1.88711 -58.20511,-1.62634 -87.21602,-5.23979 -29.01091,-3.61346 -58.02152,-7.12691 -87.02945,-9.74037 -29.00793,-2.61346 -58.01257,-4.12692 -87.22289,-7.53978 -29.11031,-3.41316 -58.52629,-8.72541 -87.626166,-8.63858 -29.19987,0.0871 -58.183629,5.57363 -72.675806,8.21689 l -14.4918795,2.74325 0.2118487,70.99968 14.4999358,-0.0433 c 14.499935,-0.0433 43.499806,-0.1298 72.699676,-0.21692 29.099871,-0.0868 58.499741,-0.17456 87.599611,-0.26138 29.19987,-0.0871 58.19974,-0.17366 87.19961,-0.26019 28.99987,-0.0865 57.99975,-0.17306 86.99962,-0.25959 28.99987,-0.0865 57.99974,-0.17306 87.19961,-0.26018 29.09987,-0.0868 58.49974,-0.17456 87.59961,-0.26138 29.19987,-0.0871 58.19974,-0.17366 87.19961,-0.26019 28.99987,-0.0865 57.99974,-0.17306 86.99961,-0.25959 28.99987,-0.0865 57.99974,-0.17306 87.19961,-0.26019 29.09988,-0.0868 58.49974,-0.17455 87.59962,-0.26137 29.19987,-0.0871 58.19974,-0.17366 72.69967,-0.21693 l 14.49994,-0.0433 z"
     fill="#47bb5d"
     id="path2" />
  <path
     d="m 961.09078,366.99836 -14.48114,6.34324 c -14.48084,6.44324 -43.44311,19.12971 -72.63731,21.11683 -29.0945,1.88682 -58.52123,-7.02542 -87.62915,-9.63858 -29.20763,-2.51286 -58.19676,1.17365 -87.19902,0.46019 -29.00226,-0.71347 -58.01824,-6.02692 -87.01006,-3.2404 -28.99181,2.78652 -57.96005,13.473 -87.14142,19.7601 -29.08137,6.2868 -58.47647,7.97452 -87.60319,-0.93861 -29.22673,-8.91284 -58.28508,-28.42622 -87.31181,-37.33965 -29.02672,-8.91343 -58.02182,-7.22691 -86.98917,3.75957 -28.96764,10.88649 -57.90784,30.97293 -87.12113,26.56007 -29.1133,-4.41315 -58.5997,-33.3253 -87.718371,-39.53844 -29.218966,-6.31285 -58.169903,10.17361 -72.64567,18.31684 l -14.4754686,8.24323 0.2804757,93.99958 14.4918789,-2.74325 c 14.492178,-2.64326 43.475937,-8.12976 72.675807,-8.21689 29.099878,-0.0868 58.515858,5.22543 87.626168,8.63858 29.21031,3.41286 58.21496,4.92632 87.22289,7.53978 29.00792,2.61346 58.01854,6.12691 87.02945,9.74037 29.01091,3.61345 58.02152,7.12691 87.21602,5.23979 29.0945,-1.88682 58.47229,-9.37451 87.55873,-13.96132 29.18644,-4.58711 58.18154,-6.27363 87.18917,-3.76017 29.00793,2.61346 58.02868,9.5269 87.02557,8.44037 28.99689,-1.08653 57.96991,-10.17301 87.16739,-11.06014 29.09718,-0.98682 58.51913,6.32542 87.63243,10.73857 29.2133,4.41286 58.21794,5.92632 72.72056,6.78305 l 14.50233,0.75673 z"
     fill="#00987f"
     id="path4"
     style="fill:#76ffe8;fill-opacity:1" />
  <path
     d="m 960.91474,307.99863 -14.49188,2.74325 c -14.49218,2.64325 -43.47594,8.12976 -72.68387,5.5169 -29.10792,-2.61316 -58.53942,-13.12539 -87.64735,-15.73855 -29.20792,-2.61286 -58.19168,2.87364 -87.17574,8.26015 -28.98406,5.3865 -57.96781,10.87301 -86.97067,9.95954 -29.00285,-0.91346 -58.0248,-8.2269 -87.23004,-9.93976 -29.10525,-1.71317 -58.49437,1.97454 -87.59424,2.06137 -29.19987,0.0871 -58.21049,-3.42633 -87.23423,-11.33977 -29.02374,-7.91343 -58.06061,-20.22685 -87.04138,-13.74034 -28.98108,6.3865 -57.90635,31.47292 -87.10115,33.26004 -29.0951,1.68682 -58.55942,-19.82536 -87.691813,-30.63849 C 58.820283,277.69015 29.820412,277.77668 15.320476,277.81994 l -14.49993538,0.0433 0.31329728,104.99953 14.4754681,-8.24323 c 14.475767,-8.14323 43.426704,-24.62969 72.64567,-18.31684 29.118674,6.21314 58.605074,35.12529 87.718364,39.53844 29.2133,4.41286 58.1535,-15.67358 87.12114,-26.56007 28.96735,-10.98648 57.96245,-12.673 86.98917,-3.75957 29.02673,8.91343 58.08508,28.42681 87.3118,37.33965 29.12673,8.91313 58.52182,7.22541 87.60319,0.93861 29.18138,-6.2871 58.14962,-16.97358 87.14143,-19.7601 28.99182,-2.78651 58.0078,2.52693 87.01006,3.2404 29.00226,0.71347 57.99139,-2.97305 87.19901,-0.46019 29.10793,2.61316 58.53465,11.5254 87.62915,9.63858 29.1942,-1.98712 58.15648,-14.67359 72.63732,-21.11683 l 14.48114,-6.34323 z"
     fill="#00707a"
     id="path6"
     style="fill:#27efff;fill-opacity:1" />
  <path
     d="m 960.44628,150.99933 -14.48352,5.54324 c -14.48353,5.54324 -43.45058,16.62972 -72.63404,22.21682 -29.08346,5.5868 -58.48333,5.67453 -87.60766,-2.43861 -29.22404,-8.01284 -58.27285,-24.32623 -87.26466,-21.53972 -28.99182,2.78652 -57.92724,24.47295 -86.911,29.95946 -28.98405,5.38651 -58.01674,-5.52691 -87.2569,-18.93973 -29.14015,-13.41311 -58.58776,-29.32532 -87.69568,-31.93848 -29.20763,-2.51286 -58.17587,8.17363 -87.18112,6.46016 -29.00524,-1.71346 -58.04808,-16.02687 -87.06376,-21.24031 -29.01569,-5.21345 -58.00481,-1.52693 -87.202,-0.53981 -29.09748,0.88682 -58.50332,-1.02545 -87.603193,-0.93862 -29.19987,0.0871 -58.193773,2.17365 -72.690725,3.21691 L 0.3550703,121.8639 0.82650818,279.8632 15.326444,279.8199 c 14.499935,-0.0433 43.499806,-0.12979 72.731901,10.58303 29.132395,10.81313 58.596715,32.32531 87.691815,30.63849 29.19479,-1.78712 58.12007,-26.87354 87.10114,-33.26004 28.98078,-6.4865 58.01765,5.82691 87.04139,13.74035 29.02374,7.91343 58.03435,11.42688 87.23422,11.33976 29.09987,-0.0868 58.489,-3.77454 87.59424,-2.06137 29.20524,1.71286 58.22719,9.0263 87.23005,9.93977 29.00285,0.91346 57.98661,-4.57304 86.97067,-9.95955 28.98406,-5.38651 57.96781,-10.87301 87.17574,-8.26015 29.10793,2.61316 58.53942,13.12539 87.64735,15.73855 29.20793,2.61286 58.19169,-2.87365 72.68386,-5.5169 l 14.49188,-2.74325 z"
     fill="#234959"
     id="path8"
     style="fill:#3dbcf2;fill-opacity:1" />
  <path
     d="m 959.99573,0 -14.49994,0.043265 c -14.49993,0.043265 -43.4998,0.1297946 -72.69967,0.2169211 -29.09987,0.086828 -58.49974,0.17455132 -87.59961,0.26137944 -29.19987,0.0871265 -58.19974,0.17365623 -87.19961,0.26018597 -28.99987,0.0865297 -57.99975,0.17305947 -86.99962,0.25958919 -28.99987,0.08653 -57.99974,0.1730595 -87.19961,0.260186 -29.09987,0.086828 -58.49974,0.1745514 -87.59961,0.2613795 -29.19987,0.087126 -58.19974,0.1736562 -87.19961,0.2601859 -28.99987,0.08653 -57.99974,0.1730595 -86.99961,0.2595893 -28.99987,0.08653 -57.99974,0.1730594 -87.19961,0.2601859 -29.09988,0.086828 -58.49974,0.1745513 -87.599618,0.2613794 -29.19987,0.087127 -58.199741,0.1736562 -72.699676,0.2169211 L 0,2.8644327 0.36103787,123.86389 14.85799,122.82063 c 14.496951,-1.04326 43.490855,-3.12978 72.690725,-3.21691 29.099875,-0.0868 58.505705,1.82544 87.603195,0.93862 29.19718,-0.98712 58.18631,-4.67364 87.202,0.53981 29.01568,5.21345 58.05852,19.52685 87.06376,21.24031 29.00524,1.71347 57.97349,-8.97302 87.18111,-6.46015 29.10793,2.61316 58.55554,18.52536 87.69569,31.93847 29.24015,13.41282 58.27285,24.32624 87.2569,18.93973 28.98376,-5.4865 57.91918,-27.17294 86.911,-29.95946 28.99181,-2.78651 58.04062,13.52688 87.26465,21.53972 29.12434,8.11314 58.52421,8.02541 87.60767,2.43861 29.18346,-5.5871 58.15051,-16.67358 72.63403,-22.21682 l 14.48353,-5.54324 z"
     fill="#21262d"
     id="path10"
     style="fill:#f9f9f9;fill-opacity:1" />
</svg>
