<svg width="1440" height="355" viewBox="0 0 1440 355" fill="none" xmlns="http://www.w3.org/2000/svg">
<g clip-path="url(#clip0_64_11069)">
<path d="M707.5 98.5L715 45L725 44L732.5 122.5L741.5 174L779 384L720.5 375.5L716.5 399L685 392.5L697.5 289.5L707.5 98.5Z" fill="#F8F8F8"/>
<path d="M707.5 98.5L715 45L725 44L732.5 122.5L741.5 174L779 384L720.5 375.5L716.5 399L685 392.5L697.5 289.5L707.5 98.5Z" fill="#005EFF" fill-opacity="0.2"/>
<path d="M684 299L716.5 95.5L724.5 129.5L734 233.5L768.5 293.5L783.5 336.5L878 383.5L589 376L684 326.5V299Z" fill="#9BC0FF"/>
<path d="M684 299L716.5 95.5L724.5 129.5L734 233.5L768.5 293.5L783.5 336.5L878 383.5L589 376L684 326.5V299Z" fill="#005EFF" fill-opacity="0.2"/>
<path d="M673.5 262.5L712.5 136.5V168L687 284.5L706.5 317.5L629 367L589.5 375.5L680.5 307L673.5 262.5Z" fill="#C2D9FF"/>
<path d="M673.5 262.5L712.5 136.5V168L687 284.5L706.5 317.5L629 367L589.5 375.5L680.5 307L673.5 262.5Z" fill="#005EFF" fill-opacity="0.2"/>
<path d="M716.5 77.5L719.5 63.5L722 98L718 207.5L716.5 77.5Z" fill="#005EFF"/>
<g clip-path="url(#clip1_64_11069)">
<path d="M719.95 21.8068C719.909 21.7797 719.861 21.7649 719.811 21.7641C719.762 21.7634 719.713 21.7767 719.671 21.8026C716.853 23.5137 713.593 30.7202 713.592 36.3896C713.587 37.3969 713.671 38.4027 713.842 39.3954C712.89 40.1924 712.08 41.1313 711.66 42.2013C710.483 45.2292 712.285 48.2559 713.153 49.4651C713.201 49.5316 713.263 49.5863 713.334 49.6248C713.406 49.6633 713.486 49.6846 713.568 49.6871C713.649 49.6895 713.73 49.673 713.804 49.6388C713.878 49.6047 713.943 49.5538 713.994 49.4902L716.998 45.7416C717.255 45.9937 717.525 46.2326 717.806 46.4573C717.999 46.616 718.241 46.7022 718.491 46.701L721.102 46.6979C721.352 46.6988 721.594 46.6127 721.787 46.4542C722.067 46.2308 722.335 45.9933 722.59 45.7427L725.592 49.4852C725.643 49.5487 725.708 49.5995 725.782 49.6336C725.856 49.6676 725.937 49.6841 726.019 49.6817C726.1 49.6792 726.18 49.658 726.252 49.6195C726.324 49.5811 726.386 49.5265 726.433 49.4601C727.303 48.257 729.11 45.2261 727.928 42.2037C727.507 41.1337 726.704 40.1971 725.759 39.402C725.931 38.4078 726.016 37.4005 726.013 36.3916C726.027 30.7175 722.873 23.639 719.95 21.8068ZM719.799 35.8533C719.28 35.8534 718.772 35.6996 718.34 35.4112C717.909 35.1229 717.572 34.7129 717.373 34.2332C717.175 33.7535 717.122 33.2257 717.224 32.7164C717.325 32.2071 717.575 31.7393 717.942 31.3721C718.309 31.005 718.777 30.7549 719.286 30.6537C719.796 30.5524 720.324 30.6045 720.803 30.8033C721.283 31.002 721.693 31.3386 721.981 31.7704C722.27 32.2023 722.423 32.7099 722.423 33.2291C722.424 33.5738 722.356 33.9152 722.224 34.2336C722.092 34.5521 721.899 34.8415 721.655 35.0852C721.412 35.329 721.122 35.5222 720.804 35.654C720.485 35.7858 720.144 35.8535 719.799 35.8533Z" fill="black"/>
<path d="M721.958 47.7325C721.959 48.1567 721.702 48.5794 721.363 49.0593C720.601 50.1351 718.995 50.1525 718.231 49.0581C717.941 48.6428 717.634 47.9626 717.634 47.7306C717.634 47.6804 717.619 47.6313 717.59 47.5903C717.561 47.5493 717.52 47.5184 717.472 47.5022C717.425 47.4859 717.373 47.485 717.325 47.4996C717.277 47.5143 717.235 47.5437 717.205 47.5836C716.753 48.1606 716.508 48.8718 716.508 49.6041C716.509 51.4232 719.799 54.8853 719.799 54.8853C719.799 54.8853 723.092 51.4212 723.091 49.6022C723.092 48.869 722.847 48.1568 722.394 47.5802C722.246 47.4042 721.953 47.5048 721.958 47.7325Z" fill="#005EFF"/>
</g>
<path d="M667 192L639 213.5" stroke="#005EFF"/>
<path d="M858.337 262.572L848.062 296.346" stroke="#005EFF"/>
<path d="M606.883 344.757L599.687 310.196" stroke="#005EFF"/>
<path d="M747.874 282.285L751.57 247.177" stroke="#005EFF"/>
<path d="M787.024 320.999L776.235 354.613" stroke="#005EFF"/>
<path d="M695.995 316.675L667 296.537" stroke="#005EFF"/>
<path d="M1518.45 -71.923L1639.1 -271.903L1784.34 -313.965L1458.13 724.164L805.686 366.51L974.5 326.5L1116.55 139.016L1299.52 109.472L1518.45 -71.923Z" fill="white"/>
<path d="M1518.45 -71.923L1639.1 -271.903L1784.34 -313.965L1458.13 724.164L805.686 366.51L974.5 326.5L1116.55 139.016L1299.52 109.472L1518.45 -71.923Z" fill="#005EFF" fill-opacity="0.2"/>
<path d="M364.851 327.093L213.319 228.664L118.69 56.0323L-191.044 -88.5978L-394 -318.13L-83.577 724.828L574.219 377.114L364.851 327.093Z" fill="white"/>
<path d="M364.851 327.093L213.319 228.664L118.69 56.0323L-191.044 -88.5978L-394 -318.13L-83.577 724.828L574.219 377.114L364.851 327.093Z" fill="#005EFF" fill-opacity="0.2"/>
<path d="M1660.3 -15.0714L1756.25 124.108L1665.87 554.725L1496.47 590.183L728.211 428.927L1030 336.5L1112.97 236.359L1366.7 232.395L1592.28 -29.3482L1660.3 -15.0714Z" fill="white"/>
<path d="M1660.3 -15.0714L1756.25 124.108L1665.87 554.725L1496.47 590.183L728.211 428.927L1030 336.5L1112.97 236.359L1366.7 232.395L1592.28 -29.3482L1660.3 -15.0714Z" fill="#005EFF" fill-opacity="0.5"/>
<path d="M53.0259 153.327L-128.685 119.839L-113.009 588.947L470.633 452.229L524.747 403.016L185.397 310.483L53.0259 153.327Z" fill="white"/>
<path d="M53.0259 153.327L-128.685 119.839L-113.009 588.947L470.633 452.229L524.747 403.016L185.397 310.483L53.0259 153.327Z" fill="#005EFF" fill-opacity="0.5"/>
</g>
<defs>
<clipPath id="clip0_64_11069">
<rect width="1440" height="355" fill="white"/>
</clipPath>
<clipPath id="clip1_64_11069">
<rect width="28" height="28" fill="white" transform="translate(700 38.7988) rotate(-45)"/>
</clipPath>
</defs>
</svg>
