<?xml version="1.0" encoding="UTF-8"?>
<svg width="68px" height="51px" viewBox="0 0 68 51" version="1.1" xmlns="http://www.w3.org/2000/svg" xmlns:xlink="http://www.w3.org/1999/xlink">
    <!-- Generator: Sketch 63 (92445) - https://sketch.com -->
    <title>LogoStandard</title>
    <desc>Created with Sketch.</desc>
    <g id="Bootstrap-Grid-Example" stroke="none" stroke-width="1" fill="none" fill-rule="evenodd">
        <g id="🖥-Extra-Large-/-12-Col" transform="translate(-405.000000, -15.000000)" fill-rule="nonzero">
            <g id="Logo-Bar" transform="translate(390.000000, 0.000000)">
                <g id="LogoStandard" transform="translate(15.000000, 15.000000)">
                    <g id="Group" transform="translate(27.000000, 23.420561)" fill="#B1E11C">
                        <path d="M0.0611311054,0.885546667 C0.0611311054,0.565546667 0.229768638,0.352213333 0.567043702,0.352213333 L2.78041131,0.352213333 C3.09660668,0.352213333 3.25365039,0.58688 3.25365039,0.885546667 L3.25365039,2.77664 C3.25365039,3.09664 3.07552699,3.26730667 2.78041131,3.26730667 L0.567043702,3.26730667 C0.271928021,3.26730667 0.0611311054,3.07530667 0.0611311054,2.77664 L0.0611311054,0.885546667 Z M0.167583548,4.45888 L3.11874036,4.45888 L3.11874036,15.7866667 L0.167583548,15.7866667 L0.167583548,4.45888 Z" id="Shape"></path>
                        <path d="M5.26971208,3.46048 C5.26971208,0.912213333 7.0039383,0.130346667 8.62127763,0.17088 C8.62127763,0.17088 14.0535141,0.32448 15.4098869,0.512213333 L15.4098869,2.98144 L9.31690746,2.98144 C8.22086889,2.98144 8.22086889,3.60010667 8.22086889,4.17621333 L8.22086889,6.61237333 L14.4507609,6.83744 L14.4507609,9.29290667 L8.22086889,9.49450667 L8.22086889,15.7866667 L5.26971208,15.7866667 L5.26971208,3.46048 Z" id="Path"></path>
                        <path d="M17.0445116,4.07477333 C17.0445116,0.981546667 18.8572596,0.07808 21.2182905,0.04288 C23.436928,-0.00405333333 25.9653316,0.29568 27.1837378,0.66048 L27.1837378,3.00810667 C25.8346375,2.88757333 22.7950514,2.79477333 22.0298586,2.79477333 C20.7398869,2.76597333 19.9956684,2.85664 19.9956684,4.30954667 L19.9956684,5.07210667 C19.9956684,6.30944 20.4636375,6.57610667 21.658856,6.57610667 L24.095563,6.57610667 C27.1194447,6.57610667 27.7434036,8.98890667 27.7434036,10.7147733 L27.7434036,11.7547733 C27.7434036,15.30016 25.5606015,15.9572267 23.4737121,15.9572267 C20.840964,15.9572267 19.1154859,15.7941333 17.5198586,15.3182933 L17.5198586,12.9706667 C18.3630463,13.056 20.9337147,13.2053333 22.8940206,13.2053333 C23.7814756,13.2053333 24.7922468,13.05696 24.7922468,11.8602667 L24.7922468,11.0197333 C24.7922468,10.1322667 24.5266427,9.56266667 23.3999332,9.56266667 L21.0285733,9.56266667 C17.3080077,9.56266667 17.0445116,6.78197333 17.0445116,5.42410667 L17.0445116,4.07477333 L17.0445116,4.07477333 Z" id="Path"></path>
                        <path d="M29.5152571,0.17088 L36.2659229,0.17088 C38.6742776,0.17088 40.4660514,1.31114667 40.4660514,5.04021333 C40.4660514,8.90570667 38.8661028,9.36437333 38.009108,9.63754667 L40.9307532,15.7866667 L37.6097532,15.7866667 L35.0591105,9.87754667 L32.4663085,9.57877333 L32.4663085,15.7866667 L29.5152571,15.7866667 L29.5152571,0.17088 L29.5152571,0.17088 Z M35.9760771,7.23210667 C37.0037121,7.23210667 37.4937095,6.92714667 37.4937095,5.04021333 C37.4937095,3.26634667 36.9034781,2.82688 35.9760771,2.82688 L32.4780077,2.82688 L32.4780077,7.23210667 L35.9760771,7.23210667 Z" id="Shape"></path>
                    </g>
                    <g id="Group" transform="translate(40.000000, 42.420561)" fill="#999999">
                        <path d="M0.0544386617,0.878222222 C0.0544386617,0.406419753 0.396892193,0.26162963 0.716342007,0.269135802 C0.716342007,0.269135802 1.7890855,0.297580247 2.05690706,0.332444444 L2.05690706,0.78962963 L0.853635688,0.78962963 C0.637130112,0.78962963 0.637130112,0.904197531 0.637130112,1.01076543 L0.637130112,1.46182716 L1.86746468,1.50350617 L1.86746468,1.95822222 L0.637130112,1.99555556 L0.637130112,3.16049383 L0.0543345725,3.16049383 L0.0543345725,0.878222222 L0.0544386617,0.878222222 Z" id="Path"></path>
                        <path d="M2.13237175,2.42834568 C2.13237175,2.12325926 2.30620074,1.8531358 2.78001487,1.8531358 C2.78001487,1.8531358 3.42942751,1.85698765 3.42942751,1.8531358 C3.42942751,1.8531358 3.43348699,1.72276543 3.42942751,1.71881481 C3.42942751,1.49520988 3.31898885,1.46014815 3.13381413,1.46014815 C2.94166543,1.46014815 2.38718216,1.49293827 2.20554647,1.50538272 L2.20554647,1.16385185 C2.49647584,1.05659259 2.80062454,1.02548148 3.21271375,1.02358997 C3.68871375,1.02182716 4.01222305,1.17797531 4.01222305,1.69708642 L4.01222305,3.16049383 L3.55204461,3.16049383 L3.42942751,2.92938272 C3.40507063,2.97501235 3.09467658,3.19071605 2.75711524,3.18419753 C2.33180669,3.17333333 2.13237175,2.8985679 2.13237175,2.62587654 L2.13237175,2.42834568 L2.13237175,2.42834568 Z M2.92199257,2.73975309 C3.16566543,2.73975309 3.42942751,2.57738272 3.42942751,2.57738272 L3.42942751,2.19288889 L2.89440892,2.23209877 C2.74056506,2.2457284 2.71516729,2.35367901 2.71516729,2.44533333 L2.71516729,2.54725926 C2.71527138,2.72187654 2.81478067,2.73975309 2.92199257,2.73975309 Z" id="Shape"></path>
                        <path d="M5.05436431,1.04325926 C5.2707658,1.04325926 5.70742007,1.05550617 6.0721487,1.1677037 L6.0721487,1.51130864 C6.0721487,1.51130864 5.67442379,1.48760494 5.30386617,1.48760494 C5.03573234,1.48760494 4.90863941,1.50281481 4.90863941,2.12118519 C4.90863941,2.6582716 5.00419331,2.73590123 5.30386617,2.73590123 C5.6869145,2.73590123 6.10118959,2.69896296 6.10118959,2.69896296 L6.10118959,3.04612346 C5.77778439,3.20217284 5.39983643,3.1762963 5.05426022,3.18024691 C4.64206691,3.18024691 4.32573978,2.97580247 4.32573978,2.1097284 C4.32584387,1.24553086 4.62978439,1.04325926 5.05436431,1.04325926 Z" id="Path"></path>
                        <path d="M6.41512268,0.0680493827 L6.99552416,0.0680493827 L6.99552416,1.28622222 C7.17851301,1.16098765 7.3620223,1.02745679 7.69937546,1.02745679 C8.21388848,1.02745679 8.35909294,1.36444444 8.35909294,1.76414815 L8.35909294,3.16049383 L7.7762974,3.16049383 L7.7762974,1.75545679 C7.7762974,1.54696296 7.67991078,1.47190123 7.53220818,1.47190123 C7.29759108,1.47190123 7.16956134,1.52908642 6.99781413,1.65353086 L6.99781413,3.16049383 L6.41501859,3.16049383 L6.41501859,0.0680493827 L6.41512268,0.0680493827 Z" id="Path"></path>
                        <path d="M8.64002974,1.60809877 C8.64002974,1.28424691 8.78575465,1.04325926 9.21460223,1.04325926 C9.63939033,1.04325926 10.2242677,1.0562963 10.394974,1.14992593 L10.394974,1.4988642 L9.39311524,1.4988642 C9.24343494,1.4988642 9.22292937,1.54330864 9.22292937,1.6428642 L9.22292937,1.73767901 C9.22292937,1.87022222 9.29631227,1.87377778 9.39311524,1.87377778 L9.91814126,1.87377778 C10.3399108,1.87377778 10.5051004,2.11091358 10.5051004,2.41580247 L10.5051004,2.63111111 C10.5051004,3.06162963 10.2303048,3.18024691 9.96404461,3.18024691 C9.54487732,3.18024691 8.88536803,3.16217284 8.73173234,3.06607407 L8.73173234,2.72069136 L9.77616357,2.72069136 C9.81509294,2.72069136 9.92230483,2.71614815 9.92230483,2.58775309 L9.92230483,2.48977778 C9.92230483,2.40148148 9.89524164,2.35288889 9.77616357,2.35288889 L9.26040149,2.35288889 C8.86902602,2.35288889 8.64013383,2.19664198 8.64013383,1.78982716 L8.64013383,1.60809877 L8.64002974,1.60809877 Z" id="Path"></path>
                        <path d="M11.516119,1.04325926 C11.7326245,1.04325926 12.1692788,1.05550617 12.5339033,1.1677037 L12.5339033,1.51130864 C12.5339033,1.51130864 12.1361784,1.48760494 11.7656208,1.48760494 C11.4975911,1.48760494 11.37029,1.50281481 11.37029,2.12118519 C11.37029,2.6582716 11.4658439,2.73590123 11.7656208,2.73590123 C12.1486691,2.73590123 12.5630483,2.69896296 12.5630483,2.69896296 L12.5630483,3.04612346 C12.2396431,3.20217284 11.8615911,3.1762963 11.5160149,3.18024691 C11.1039257,3.18024691 10.7874944,2.97580247 10.7874944,2.1097284 C10.7875985,1.24553086 11.0914349,1.04325926 11.516119,1.04325926 Z" id="Path"></path>
                        <path d="M12.8767732,0.0680493827 L13.4573829,0.0680493827 L13.4573829,1.28622222 C13.6403717,1.16098765 13.823881,1.02745679 14.161026,1.02745679 C14.675539,1.02745679 14.8209517,1.36444444 14.8209517,1.76414815 L14.8209517,3.16049383 L14.238052,3.16049383 L14.238052,1.75545679 C14.238052,1.54696296 14.1416654,1.47190123 13.9938587,1.47190123 C13.7592416,1.47190123 13.6314201,1.52908642 13.4595688,1.65353086 L13.4595688,3.16049383 L12.8766691,3.16049383 L12.8766691,0.0680493827 L12.8767732,0.0680493827 Z" id="Path"></path>
                        <path d="M15.1016803,2.42834568 C15.1016803,2.12325926 15.2755093,1.8531358 15.7493234,1.8531358 C15.7493234,1.8531358 16.3987361,1.85698765 16.3987361,1.8531358 C16.3987361,1.8531358 16.4027955,1.72276543 16.3987361,1.71881481 C16.3987361,1.49520988 16.2882974,1.46014815 16.1031227,1.46014815 C15.910974,1.46014815 15.3564907,1.49293827 15.174855,1.50538272 L15.174855,1.16385185 C15.4657844,1.05659259 15.7699331,1.02548148 16.1820223,1.02358997 C16.6580223,1.02182716 16.9815316,1.17797531 16.9815316,1.69708642 L16.9815316,3.16049383 L16.5213532,3.16049383 L16.3987361,2.92938272 C16.3743792,2.97501235 16.0639851,3.19071605 15.7264238,3.18419753 C15.3011152,3.17333333 15.1016803,2.8985679 15.1016803,2.62587654 L15.1016803,2.42834568 L15.1016803,2.42834568 Z M15.8913011,2.73975309 C16.134974,2.73975309 16.3987361,2.57738272 16.3987361,2.57738272 L16.3987361,2.19288889 L15.8637175,2.23209877 C15.7098736,2.2457284 15.6844758,2.35367901 15.6844758,2.44533333 L15.6844758,2.54725926 C15.6845799,2.72187654 15.7840892,2.73975309 15.8913011,2.73975309 Z" id="Shape"></path>
                        <path d="M17.2000149,1.13017284 L17.5465279,1.06301235 L17.5465279,0.672 C17.5465279,0.31308642 17.6987063,0.0558024691 18.1983346,0.0558024691 C18.4022454,0.0558024691 18.5748253,0.0804938272 18.7558364,0.150617284 L18.7558364,0.478814815 C18.7516729,0.478814815 18.3583197,0.474864198 18.3583197,0.474864198 C18.1239108,0.47091358 18.1294275,0.582320988 18.1294275,0.802271605 L18.1294275,1.06301235 L18.6309294,1.06301235 L18.6309294,1.48562963 L18.1294275,1.48562963 L18.1294275,3.16049383 L17.5465279,3.16049383 L17.5465279,1.4857284 L17.2000149,1.4857284 L17.2000149,1.13017284 Z" id="Path"></path>
                        <path d="M18.8779331,1.1737284 L19.2350632,1.05916049 L19.3329071,0.474567901 L19.8177546,0.474567901 L19.8177546,1.05916049 L20.3119703,1.05916049 L20.3119703,1.48177778 L19.8177546,1.48177778 L19.8177546,2.32316049 C19.8177546,2.632 19.8930112,2.69797531 20.0069888,2.7382716 C20.0069888,2.7382716 20.2566989,2.82123457 20.285948,2.82123457 L20.285948,3.16088889 L19.7776803,3.16088889 C19.4502156,3.16088889 19.2349591,2.96691358 19.2349591,2.40997531 L19.2349591,1.48177778 L18.877829,1.48177778 L18.877829,1.1737284 L18.8779331,1.1737284 Z" id="Path"></path>
                        <path d="M20.5269145,1.60809877 C20.5269145,1.28424691 20.6725353,1.04325926 21.1013829,1.04325926 C21.526171,1.04325926 22.1110483,1.0562963 22.2818587,1.14992593 L22.2818587,1.4988642 L21.28,1.4988642 C21.1303197,1.4988642 21.10971,1.54330864 21.10971,1.6428642 L21.10971,1.73767901 C21.10971,1.87022222 21.183197,1.87377778 21.28,1.87377778 L21.8049219,1.87377778 C22.2266914,1.87377778 22.391881,2.11091358 22.391881,2.41580247 L22.391881,2.63111111 C22.391881,3.06162963 22.1171896,3.18024691 21.8508253,3.18024691 C21.431658,3.18024691 20.7722528,3.16217284 20.618513,3.06607407 L20.618513,2.72069136 L21.6630483,2.72069136 C21.7018736,2.72069136 21.8090855,2.71614815 21.8090855,2.58775309 L21.8090855,2.48977778 C21.8090855,2.40148148 21.7820223,2.35288889 21.6630483,2.35288889 L21.1472862,2.35288889 C20.7559108,2.35288889 20.5270186,2.19664198 20.5270186,1.78982716 L20.5270186,1.60809877 L20.5269145,1.60809877 Z" id="Path"></path>
                        <path d="M22.706855,1.06311111 L23.198052,1.06311111 L23.2897546,1.32780247 C23.4428699,1.18735802 23.6489665,1.04167901 23.9238662,1.04167901 C24.0194201,1.04167901 24.1111227,1.04523457 24.1701413,1.06676543 L24.1701413,1.60059259 C24.1111227,1.59516049 23.9759108,1.58992593 23.8506914,1.58992593 C23.6092045,1.58992593 23.4339182,1.62725926 23.2897546,1.82330864 L23.2897546,3.16049383 L22.706855,3.16049383 L22.706855,1.06311111 Z" id="Path"></path>
                        <path d="M24.3781115,2.42834568 C24.3781115,2.12325926 24.5519405,1.8531358 25.0257546,1.8531358 C25.0257546,1.8531358 25.6750632,1.85698765 25.6750632,1.8531358 C25.6750632,1.8531358 25.6792268,1.72276543 25.6750632,1.71881481 C25.6750632,1.49520988 25.5647286,1.46014815 25.3794498,1.46014815 C25.1873011,1.46014815 24.6329219,1.49293827 24.4511822,1.50538272 L24.4511822,1.16385185 C24.7421115,1.05659259 25.0462602,1.02548148 25.4583494,1.02358997 C25.9344535,1.02182716 26.2579628,1.17797531 26.2579628,1.69708642 L26.2579628,3.16049383 L25.7976803,3.16049383 L25.6750632,2.92938272 C25.6507063,2.97501235 25.3404164,3.19071605 25.0027509,3.18419753 C24.5775465,3.17333333 24.3781115,2.8985679 24.3781115,2.62587654 L24.3781115,2.42834568 L24.3781115,2.42834568 Z M25.1676283,2.73975309 C25.4114052,2.73975309 25.6750632,2.57738272 25.6750632,2.57738272 L25.6750632,2.19288889 L25.1401487,2.23209877 C24.9862007,2.2457284 24.960803,2.35367901 24.960803,2.44533333 L24.960803,2.54725926 C24.9609071,2.72187654 25.0605204,2.73975309 25.1676283,2.73975309 Z" id="Shape"></path>
                        <path d="M26.476342,1.1737284 L26.8334721,1.05916049 L26.931316,0.474567901 L27.4162677,0.474567901 L27.4162677,1.05916049 L27.9103792,1.05916049 L27.9103792,1.48177778 L27.4162677,1.48177778 L27.4162677,2.32316049 C27.4162677,2.632 27.4915242,2.69797531 27.6055019,2.7382716 C27.6055019,2.7382716 27.8551078,2.82123457 27.8843569,2.82123457 L27.8843569,3.16088889 L27.3760892,3.16088889 C27.0486245,3.16088889 26.833368,2.96691358 26.833368,2.40997531 L26.833368,1.48177778 L26.4762379,1.48177778 L26.4762379,1.1737284 L26.476342,1.1737284 Z" id="Path"></path>
                        <polygon id="Path" points="8.6259777 5.00987654 9.20887732 5.00987654 9.20887732 7.90123457 8.6259777 7.90123457"></polygon>
                        <path d="M9.58328625,5.80385185 L10.0516877,5.80385185 L10.1661859,6.02706173 C10.3560446,5.89738272 10.5304981,5.7682963 10.867539,5.7682963 C11.382052,5.7682963 11.5274647,6.10528395 11.5274647,6.50498765 L11.5274647,7.90123457 L10.9445651,7.90123457 L10.9445651,6.49619753 C10.9445651,6.2877037 10.8464089,6.21264198 10.7003717,6.21264198 C10.4657546,6.21264198 10.3379331,6.26982716 10.1660818,6.3942716 L10.1660818,7.90123457 L9.58318216,7.90123457 L9.58318216,5.80385185 L9.58328625,5.80385185 Z" id="Path"></path>
                        <path d="M11.7457398,5.87091358 L12.0922528,5.80375309 L12.0922528,5.41274074 C12.0922528,5.05382716 12.2444312,4.79654321 12.7440595,4.79654321 C12.9479703,4.79654321 13.1205502,4.82123457 13.3015613,4.89135802 L13.3015613,5.21955556 C13.2973978,5.21955556 12.9040446,5.21560494 12.9040446,5.21560494 C12.6696357,5.21165432 12.6751524,5.32306173 12.6751524,5.54301235 L12.6751524,5.80375309 L13.1766543,5.80375309 L13.1766543,6.22637037 L12.6751524,6.22637037 L12.6751524,7.90123457 L12.0922528,7.90123457 L12.0922528,6.22646914 L11.7457398,6.22646914 L11.7457398,5.87091358 Z" id="Path"></path>
                        <path d="M14.4440446,5.784 C15.2052491,5.784 15.452461,6.04869136 15.452461,6.88207407 C15.452461,7.66024691 15.2165948,7.92098765 14.4440446,7.92098765 C13.6804461,7.92098765 13.4355241,7.63259259 13.4355241,6.88207407 C13.4354201,6.02498765 13.696684,5.784 14.4440446,5.784 Z M14.4440446,7.47664198 C14.7721338,7.47664198 14.8696654,7.4342716 14.8696654,6.88207407 C14.8696654,6.29451852 14.7913903,6.22834568 14.4440446,6.22834568 C14.0990929,6.22834568 14.0183197,6.29491358 14.0183197,6.88207407 C14.0183197,7.42488889 14.134171,7.47664198 14.4440446,7.47664198 Z" id="Shape"></path>
                        <path d="M15.7995985,5.80385185 L16.2907955,5.80385185 L16.3823941,6.06854321 C16.5356134,5.92809877 16.7416059,5.78241975 17.0166097,5.78241975 C17.1121636,5.78241975 17.2037621,5.78597531 17.2627807,5.80750617 L17.2627807,6.34133333 C17.2037621,6.33590123 17.0686543,6.33066667 16.9434349,6.33066667 C16.701948,6.33066667 16.5266617,6.368 16.3823941,6.56404938 L16.3823941,7.90123457 L15.7995985,7.90123457 L15.7995985,5.80385185 Z" id="Path"></path>
                        <path d="M17.5358067,5.80385185 L18.0041041,5.80385185 L18.1186022,6.03061728 C18.3153309,5.89669136 18.4734424,5.77362963 18.8068401,5.77362963 C19.0889219,5.77362963 19.2887732,5.87506173 19.3799554,6.04474074 C19.5780372,5.90745679 19.8315985,5.77362963 20.1746766,5.77362963 C20.6629591,5.77362963 20.8344981,6.08740741 20.8344981,6.51209877 L20.8344981,7.90123457 L20.2517026,7.90123457 L20.2517026,6.50340741 C20.2517026,6.30725926 20.155316,6.21797531 20.0075093,6.21797531 C19.7839257,6.21797531 19.6219628,6.25846914 19.4663494,6.38271605 C19.4663494,6.40009877 19.4685353,6.48888889 19.4685353,6.50844444 L19.4685353,7.90123457 L18.8856357,7.90123457 L18.8856357,6.50340741 C18.8856357,6.30725926 18.7874796,6.21797531 18.6396729,6.21797531 C18.4107807,6.21797531 18.2902454,6.27348148 18.1184981,6.39782716 L18.1184981,7.90123457 L17.5357026,7.90123457 L17.5357026,5.80385185 L17.5358067,5.80385185 Z" id="Path"></path>
                        <path d="M21.1138736,7.16908642 C21.1138736,6.864 21.2877026,6.59387654 21.7615167,6.59387654 C21.7615167,6.59387654 22.4109294,6.5977284 22.4109294,6.59387654 C22.4109294,6.59387654 22.4149888,6.46350617 22.4109294,6.45955556 C22.4109294,6.23595062 22.3004907,6.20088889 22.115316,6.20088889 C21.9231673,6.20088889 21.368684,6.23367901 21.1870483,6.24612346 L21.1870483,5.90459259 C21.4779777,5.79733333 21.7821264,5.76622222 22.1942156,5.76433071 C22.6702156,5.7625679 22.9937249,5.91871605 22.9937249,6.43782716 L22.9937249,7.90123457 L22.5335465,7.90123457 L22.4109294,7.67012346 C22.3865725,7.71575309 22.0761784,7.93145679 21.7386171,7.92493827 C21.3133086,7.91407407 21.1138736,7.63930864 21.1138736,7.36661728 L21.1138736,7.16908642 L21.1138736,7.16908642 Z M21.9034944,7.48049383 C22.1471673,7.48049383 22.4109294,7.31812346 22.4109294,7.31812346 L22.4109294,6.93362963 L21.8759108,6.97283951 C21.7220669,6.98646914 21.6966691,7.09441975 21.6966691,7.18607407 L21.6966691,7.288 C21.6966691,7.46261728 21.7961784,7.48049383 21.9034944,7.48049383 Z" id="Shape"></path>
                        <path d="M23.2121041,5.91446914 L23.5693383,5.79990123 L23.6670781,5.21530864 L24.1521338,5.21530864 L24.1521338,5.79990123 L24.6461413,5.79990123 L24.6461413,6.22251852 L24.1521338,6.22251852 L24.1521338,7.06390123 C24.1521338,7.37274074 24.2272862,7.43871605 24.3412639,7.47901235 C24.3412639,7.47901235 24.590974,7.56197531 24.620119,7.56197531 L24.620119,7.90162963 L24.1118513,7.90162963 C23.7844907,7.90162963 23.5692342,7.70765432 23.5692342,7.15071605 L23.5692342,6.22251852 L23.212,6.22251852 L23.212,5.91446914 L23.2121041,5.91446914 Z" id="Path"></path>
                        <path d="M24.8935613,5.14212346 C24.8935613,5.0828642 24.9464015,5.04335802 25.0520818,5.04335802 L25.7454438,5.04335802 C25.8446842,5.04335802 25.8935613,5.08681481 25.8935613,5.14212346 L25.8935613,5.49234568 C25.8935613,5.55160494 25.8377489,5.58320988 25.7454438,5.58320988 L25.0520818,5.58320988 C24.9596115,5.58320988 24.8935613,5.54765432 24.8935613,5.49234568 L24.8935613,5.14212346 Z M24.9269167,5.80385185 L25.8514543,5.80385185 L25.8514543,7.90123457 L24.9269167,7.90123457 L24.9269167,5.80385185 Z" id="Shape"></path>
                        <polygon id="Path" points="25.8711673 4.81244444 26.4539628 4.81244444 26.4539628 6.50696296 26.5747063 6.50696296 27.2022602 5.80385185 27.9401487 5.80385185 27.1110781 6.71832099 27.9401487 7.90123457 27.2480595 7.90123457 26.5747063 6.92958025 26.4539628 6.92958025 26.4539628 7.90123457 25.8711673 7.90123457 25.8711673 4.81244444"></polygon>
                    </g>
                    <path d="M0.210055805,46.2775133 C2.11885283,44.4828599 7.8452439,46.2775133 11.6628379,41.5811069 C15.480432,36.8847006 17.389229,30.3097316 15.480432,24.674044 C13.571635,19.0383563 11.6628379,12.4633874 17.389229,6.82769976 C23.1156201,1.19201211 27.8876126,-1.62583172 32.6596052,2.13129338 C37.4315978,5.88841848 36.4771993,12.4633874 33.6140037,16.2205125 C30.7508082,19.9776376 25.0244171,22.7954814 22.1612216,26.5526065 C19.298026,30.3097316 18.3436275,35.006138 21.2068231,39.7025444 C24.0700186,44.3989508 31.7052067,43.3757603 34.5684022,45.338232 C37.4315978,47.3007037 30.7508082,47.2167946 20.2524246,47.2167946 C9.75404092,47.2167946 -1.69874122,48.0722711 0.210055805,46.2775133 Z" id="Path" fill="#B1E11C"></path>
                </g>
            </g>
        </g>
    </g>
</svg>
